<svg xmlns="http://www.w3.org/2000/svg" viewBox="0 0 33.55 32.11"><defs><style>.cls-1{fill:#391948;}.cls-2{fill:#fefefe;}.cls-3{fill:#c2b8c3;}.cls-4{fill:#fdaa26;}.cls-5{fill:#f6ce86;}.cls-6{fill:#c67e2a;opacity:0.29;}.cls-7{fill:#c5bac8;opacity:0.32;}</style></defs><g id="Layer_2" data-name="Layer 2"><g id="Layer_1-2" data-name="Layer 1"><path class="cls-1" d="M33,16.51a15.68,15.68,0,0,0-1.37-2.09,12.54,12.54,0,0,0-.83-.95c-.22-.22-.45-.45-.65-.69a5.32,5.32,0,0,1-1.4-4.66c.08-.39.13-.8.18-1.27,0-.23.06-.49.09-.8,0-.1-.05-.22-.07-.34a5.82,5.82,0,0,0-.35-1.16,4.69,4.69,0,0,0-4.32-2.88,8,8,0,0,0-1,0,5.55,5.55,0,0,1-1,.05A4.75,4.75,0,0,1,19.56.81,4.84,4.84,0,0,0,17.22,0l-.51,0a6.58,6.58,0,0,0-6,3.39A10.42,10.42,0,0,1,4.72,7.86a7.23,7.23,0,0,0-4,3.3,4.12,4.12,0,0,0-.13,4.33A19.19,19.19,0,0,0,1.7,17.37a3.56,3.56,0,0,1,.49,2.93l-.1.41c-.19.73-.37,1.47-.61,2.19a5.22,5.22,0,0,0,.15,3.84A8.44,8.44,0,0,0,8.25,32a5.82,5.82,0,0,0,.73.08,4.46,4.46,0,0,0,4.13-2.56c.14-.29.27-.58.38-.88l.21-.51a3.23,3.23,0,0,1,1.15-1.48,2.93,2.93,0,0,1,1.75-.47,18.44,18.44,0,0,1,3.39.55l.13,0c.56.13,1.12.31,1.66.47s1,.32,1.52.44a7.19,7.19,0,0,0,1.5.2A6.6,6.6,0,0,0,29.54,26a14.09,14.09,0,0,0,3.65-5.58A4.41,4.41,0,0,0,33,16.51ZM32.12,21a13.93,13.93,0,0,1-3.29,4.59,5.72,5.72,0,0,1-3.94,1.54,5.78,5.78,0,0,1-1.21-.17c-.92-.23-1.85-.51-2.74-.77L20,25.9a11.45,11.45,0,0,0-2.84-.55,5.19,5.19,0,0,0-1.12.08A3.83,3.83,0,0,0,13,27.77c-.1.21-.19.43-.28.65s-.12.31-.19.46A3.65,3.65,0,0,1,9,31.31a5.18,5.18,0,0,1-.78-.09,7.63,7.63,0,0,1-5.95-5,4.47,4.47,0,0,1-.08-2.91c.33-1.14.58-2.29.83-3.4a3.6,3.6,0,0,0-.53-2.72l-.35-.56c-.29-.45-.59-.93-.85-1.41a3.38,3.38,0,0,1,.06-3.64,6.31,6.31,0,0,1,3.5-2.92,21.68,21.68,0,0,0,2.41-1,8.8,8.8,0,0,0,3.34-2.86l.46-.63a16,16,0,0,1,1.24-1.58,5.57,5.57,0,0,1,7.27-.83A4.52,4.52,0,0,0,22,2.61c.21,0,.43,0,.64,0a14.39,14.39,0,0,1,1.59-.09h.08a4.06,4.06,0,0,1,3.74,2.9,3.64,3.64,0,0,1,.09.72c0,.09,0,.17,0,.23s0,.29-.05.42a6,6,0,0,1-.11.68,6.44,6.44,0,0,0,1.89,6.28,23.75,23.75,0,0,1,1.7,2A4.71,4.71,0,0,1,32.12,21Z"/><path class="cls-2" d="M32.12,21a13.93,13.93,0,0,1-3.29,4.59,5.72,5.72,0,0,1-3.94,1.54,5.78,5.78,0,0,1-1.21-.17c-.92-.23-1.85-.51-2.74-.77L20,25.9a11.45,11.45,0,0,0-2.84-.55,5.19,5.19,0,0,0-1.12.08A3.83,3.83,0,0,0,13,27.77c-.1.21-.19.43-.28.65s-.12.31-.19.46A3.65,3.65,0,0,1,9,31.31a5.18,5.18,0,0,1-.78-.09,7.63,7.63,0,0,1-5.95-5,4.47,4.47,0,0,1-.08-2.91c.33-1.14.58-2.29.83-3.4a3.6,3.6,0,0,0-.53-2.72l-.35-.56c-.29-.45-.59-.93-.85-1.41a3.38,3.38,0,0,1,.06-3.64,6.31,6.31,0,0,1,3.5-2.92,21.68,21.68,0,0,0,2.41-1,8.8,8.8,0,0,0,3.34-2.86l.46-.63a16,16,0,0,1,1.24-1.58,5.57,5.57,0,0,1,7.27-.83A4.52,4.52,0,0,0,22,2.61c.21,0,.43,0,.64,0a14.39,14.39,0,0,1,1.59-.09h.08a4.06,4.06,0,0,1,3.74,2.9,3.64,3.64,0,0,1,.09.72c0,.09,0,.17,0,.23s0,.29-.05.42a6,6,0,0,1-.11.68,6.44,6.44,0,0,0,1.89,6.28,23.75,23.75,0,0,1,1.7,2A4.71,4.71,0,0,1,32.12,21Z"/><path class="cls-3" d="M21.21,19.35a.42.42,0,0,1-.15,0l-.08,0s0,0,0,0a0,0,0,0,1,0,0l0-.08a1.57,1.57,0,0,1,.09-.23s.05-.05.08-.06c1.93-1.15,2.6-2.87,2.19-5.58a2.36,2.36,0,0,1,0-.53c0-.08,0-.16,0-.24a.05.05,0,0,1,0-.06h0a.05.05,0,0,1,.05,0l.14.22a1.43,1.43,0,0,1,.25.53,10.75,10.75,0,0,1,.09,1.13c0,.15,0,.31,0,.46A4.53,4.53,0,0,1,21.79,19a3,3,0,0,1-.51.32Z"/><path class="cls-3" d="M29.77,19.87l0,0a.05.05,0,0,1,0,0,.22.22,0,0,0,0-.08.28.28,0,0,1,0-.22A2.92,2.92,0,0,0,29.92,17l0-.11a.81.81,0,0,1,0-.31.35.35,0,0,0,0-.13.07.07,0,0,1,0-.05h0l0,0,.11.09a.56.56,0,0,1,.22.27c.09.37.16.74.24,1.16l.09.5-.12.32c-.12.33-.26.67-.42,1,0,.08-.14.09-.26.1h-.12A0,0,0,0,1,29.77,19.87Z"/><path class="cls-3" d="M26.53,9h-.08A2.51,2.51,0,0,1,25.3,7.24.44.44,0,0,1,25.48,7h0a.22.22,0,0,1,.19.09c.37.53.73,1.08,1.09,1.62a.29.29,0,0,1,0,.1v.09s0,0,0,0l0,0-.1,0Z"/><path class="cls-3" d="M28,23.2a.05.05,0,0,1,0,0l-.06-.07c-.07-.08-.12-.13-.08-.18.17-.25.36-.51.58-.78h.05s.08,0,.16.08l.18.11a.05.05,0,0,1,0,0s0,0,0,0l-.76.77,0,0Z"/><path class="cls-1" d="M19.49,10.94a6.15,6.15,0,0,0-4.6-2.21A6.37,6.37,0,0,0,12,9.35a5.41,5.41,0,0,0-2.89,3.3,5.15,5.15,0,0,0,.5,4.13,6,6,0,0,0,5.17,3h.44a1.22,1.22,0,0,0,.27,0,5.52,5.52,0,0,0,4.89-3.36A5,5,0,0,0,19.49,10.94Zm.36,4.51a4.57,4.57,0,0,1-2.41,3,5.45,5.45,0,0,1-2.62.59A5.51,5.51,0,0,1,11,17.31a4.29,4.29,0,0,1-1-4.76,4.79,4.79,0,0,1,4.31-3h.5a5.28,5.28,0,0,1,4.38,2.3A4.39,4.39,0,0,1,19.85,15.45Z"/><path class="cls-4" d="M19.85,15.45a4.57,4.57,0,0,1-2.41,3,5.45,5.45,0,0,1-2.62.59A5.51,5.51,0,0,1,11,17.31a4.29,4.29,0,0,1-1-4.76,4.79,4.79,0,0,1,4.31-3h.5a5.28,5.28,0,0,1,4.38,2.3A4.39,4.39,0,0,1,19.85,15.45Z"/><path class="cls-5" d="M15.41,10.21l.1-.05c.1-.05.19-.1.26-.07l.23.11a5.78,5.78,0,0,1,2.72,2.06l.07.33c.1.45.25,1.09.37,1.73,0,.08-.05.16-.13.25l-.08.1h0l-.05,0-.06-.09c-.06-.07-.13-.14-.13-.22A3.66,3.66,0,0,0,16,10.75l-.09,0a2.59,2.59,0,0,1-.38-.17.37.37,0,0,1-.11-.18.25.25,0,0,0,0-.07v0l0,0Z"/><path class="cls-5" d="M12.71,10.87l.09,0,0,0L13,10.7a1.21,1.21,0,0,1,.33-.15,3.2,3.2,0,0,1,.44,0H14a.05.05,0,0,1,0,0s0,0,0,.06l-.12.1a2.43,2.43,0,0,1-.25.2c-.22.15-.42.27-.61.38l-.1.05-.29.15-.14.07a0,0,0,0,1-.06,0,.06.06,0,0,1,0-.06l.06-.16a1.76,1.76,0,0,1,.16-.4A.19.19,0,0,1,12.71,10.87Z"/><path class="cls-6" d="M19.94,15.13c0,.1,0,.2-.06.3a4.6,4.6,0,0,1-2.43,3,5.36,5.36,0,0,1-2.64.58,5.47,5.47,0,0,1-3.88-1.7,4.25,4.25,0,0,1-1-4.76,4.7,4.7,0,0,1,.6-1.08,2.77,2.77,0,0,1,.76,0c1.45.26.8,3,2.38,4.23S17.85,15.63,19.94,15.13Z"/><path class="cls-7" d="M32.12,21a14,14,0,0,1-3.29,4.58,5.72,5.72,0,0,1-3.94,1.54A5.19,5.19,0,0,1,23.68,27c-.92-.22-1.85-.5-2.74-.77L20,26a11,11,0,0,0-2.84-.55,5.92,5.92,0,0,0-1.12.07A3.87,3.87,0,0,0,13,27.82l-.27.64c-.06.16-.12.31-.19.47A3.65,3.65,0,0,1,9,31.36a4.17,4.17,0,0,1-.78-.1,7.61,7.61,0,0,1-5.95-5,4.47,4.47,0,0,1-.08-2.91c.33-1.13.58-2.28.83-3.4a3.57,3.57,0,0,0-.54-2.72l-.34-.55c-.29-.46-.59-.94-.86-1.42a3.38,3.38,0,0,1,.07-3.64,7.58,7.58,0,0,1,.78-1.09,12.18,12.18,0,0,1,.33,1.81,22.93,22.93,0,0,0,.26,3.5c.45,1.84,1.25,2,1.82,3.47,1.29,3.2-1.39,5.5-.2,7.17,1.07,1.48,4.33,1.22,6.47.44,4-1.45,4-4.65,6.88-5.23,3.78-.75,5.7,4.34,9.26,3.67,2.83-.53,6-4.54,5.27-8.57A4.64,4.64,0,0,1,32.12,21Z"/></g></g></svg>